<mxfile host="app.diagrams.net" modified="2022-03-11T20:06:35.463Z" agent="5.0 (Windows NT 10.0; Win64; x64) AppleWebKit/537.36 (KHTML, like Gecko) Chrome/99.0.4844.51 Safari/537.36" etag="lr4negEA_G2IB2IbE9Pg" version="17.1.2" type="github">
  <diagram id="R2lEEEUBdFMjLlhIrx00" name="Page-1">
    <mxGraphModel dx="1038" dy="579" grid="1" gridSize="10" guides="1" tooltips="1" connect="1" arrows="1" fold="1" page="1" pageScale="1" pageWidth="850" pageHeight="1100" math="0" shadow="0" extFonts="Permanent Marker^https://fonts.googleapis.com/css?family=Permanent+Marker">
      <root>
        <mxCell id="0" />
        <mxCell id="1" parent="0" />
        <mxCell id="GQfrkAbbICruEcOHjy7Y-5" value="pertenece" style="rhombus;whiteSpace=wrap;html=1;" vertex="1" parent="1">
          <mxGeometry x="400" y="140" width="80" height="80" as="geometry" />
        </mxCell>
        <mxCell id="GQfrkAbbICruEcOHjy7Y-9" value="" style="endArrow=none;html=1;rounded=0;entryX=0;entryY=0.5;entryDx=0;entryDy=0;" edge="1" parent="1" source="GQfrkAbbICruEcOHjy7Y-11" target="GQfrkAbbICruEcOHjy7Y-5">
          <mxGeometry width="50" height="50" relative="1" as="geometry">
            <mxPoint x="299.20000000000005" y="179" as="sourcePoint" />
            <mxPoint x="380" y="180" as="targetPoint" />
          </mxGeometry>
        </mxCell>
        <mxCell id="GQfrkAbbICruEcOHjy7Y-10" value="" style="endArrow=none;html=1;rounded=0;exitX=1;exitY=0.5;exitDx=0;exitDy=0;" edge="1" parent="1" source="GQfrkAbbICruEcOHjy7Y-5" target="GQfrkAbbICruEcOHjy7Y-13">
          <mxGeometry width="50" height="50" relative="1" as="geometry">
            <mxPoint x="490" y="320" as="sourcePoint" />
            <mxPoint x="560" y="180" as="targetPoint" />
          </mxGeometry>
        </mxCell>
        <mxCell id="GQfrkAbbICruEcOHjy7Y-40" style="edgeStyle=none;rounded=0;orthogonalLoop=1;jettySize=auto;html=1;exitX=0;exitY=0.25;exitDx=0;exitDy=0;entryX=1;entryY=0.5;entryDx=0;entryDy=0;endArrow=none;endFill=0;" edge="1" parent="1" source="GQfrkAbbICruEcOHjy7Y-11" target="GQfrkAbbICruEcOHjy7Y-39">
          <mxGeometry relative="1" as="geometry" />
        </mxCell>
        <mxCell id="GQfrkAbbICruEcOHjy7Y-63" style="edgeStyle=none;rounded=0;orthogonalLoop=1;jettySize=auto;html=1;exitX=0;exitY=0.75;exitDx=0;exitDy=0;entryX=1;entryY=0.5;entryDx=0;entryDy=0;endArrow=none;endFill=0;" edge="1" parent="1" source="GQfrkAbbICruEcOHjy7Y-11" target="GQfrkAbbICruEcOHjy7Y-62">
          <mxGeometry relative="1" as="geometry" />
        </mxCell>
        <mxCell id="GQfrkAbbICruEcOHjy7Y-65" style="edgeStyle=none;rounded=0;orthogonalLoop=1;jettySize=auto;html=1;exitX=0.5;exitY=1;exitDx=0;exitDy=0;entryX=0.5;entryY=0;entryDx=0;entryDy=0;endArrow=none;endFill=0;" edge="1" parent="1" source="GQfrkAbbICruEcOHjy7Y-11" target="GQfrkAbbICruEcOHjy7Y-64">
          <mxGeometry relative="1" as="geometry" />
        </mxCell>
        <mxCell id="GQfrkAbbICruEcOHjy7Y-78" style="edgeStyle=none;rounded=0;orthogonalLoop=1;jettySize=auto;html=1;exitX=0.25;exitY=1;exitDx=0;exitDy=0;entryX=1;entryY=0.5;entryDx=0;entryDy=0;endArrow=none;endFill=0;" edge="1" parent="1" source="GQfrkAbbICruEcOHjy7Y-11" target="GQfrkAbbICruEcOHjy7Y-77">
          <mxGeometry relative="1" as="geometry" />
        </mxCell>
        <mxCell id="GQfrkAbbICruEcOHjy7Y-11" value="Factura" style="rounded=1;whiteSpace=wrap;html=1;" vertex="1" parent="1">
          <mxGeometry x="190" y="160" width="100" height="40" as="geometry" />
        </mxCell>
        <mxCell id="GQfrkAbbICruEcOHjy7Y-22" style="edgeStyle=none;rounded=0;orthogonalLoop=1;jettySize=auto;html=1;exitX=0.5;exitY=0;exitDx=0;exitDy=0;entryX=0.333;entryY=1;entryDx=0;entryDy=0;entryPerimeter=0;strokeColor=none;" edge="1" parent="1" source="GQfrkAbbICruEcOHjy7Y-13" target="GQfrkAbbICruEcOHjy7Y-16">
          <mxGeometry relative="1" as="geometry" />
        </mxCell>
        <mxCell id="GQfrkAbbICruEcOHjy7Y-23" value="" style="edgeStyle=none;rounded=0;orthogonalLoop=1;jettySize=auto;html=1;endArrow=none;endFill=0;" edge="1" parent="1" source="GQfrkAbbICruEcOHjy7Y-13" target="GQfrkAbbICruEcOHjy7Y-16">
          <mxGeometry relative="1" as="geometry" />
        </mxCell>
        <mxCell id="GQfrkAbbICruEcOHjy7Y-24" style="edgeStyle=none;rounded=0;orthogonalLoop=1;jettySize=auto;html=1;exitX=1;exitY=0;exitDx=0;exitDy=0;entryX=0;entryY=1;entryDx=0;entryDy=0;endArrow=none;endFill=0;" edge="1" parent="1" source="GQfrkAbbICruEcOHjy7Y-13" target="GQfrkAbbICruEcOHjy7Y-19">
          <mxGeometry relative="1" as="geometry" />
        </mxCell>
        <mxCell id="GQfrkAbbICruEcOHjy7Y-25" style="edgeStyle=none;rounded=0;orthogonalLoop=1;jettySize=auto;html=1;exitX=1;exitY=0.5;exitDx=0;exitDy=0;entryX=0;entryY=0.5;entryDx=0;entryDy=0;endArrow=none;endFill=0;" edge="1" parent="1" source="GQfrkAbbICruEcOHjy7Y-13" target="GQfrkAbbICruEcOHjy7Y-17">
          <mxGeometry relative="1" as="geometry" />
        </mxCell>
        <mxCell id="GQfrkAbbICruEcOHjy7Y-26" style="edgeStyle=none;rounded=0;orthogonalLoop=1;jettySize=auto;html=1;exitX=1;exitY=1;exitDx=0;exitDy=0;entryX=0;entryY=0;entryDx=0;entryDy=0;endArrow=none;endFill=0;" edge="1" parent="1" source="GQfrkAbbICruEcOHjy7Y-13" target="GQfrkAbbICruEcOHjy7Y-18">
          <mxGeometry relative="1" as="geometry" />
        </mxCell>
        <mxCell id="GQfrkAbbICruEcOHjy7Y-13" value="Cliente" style="rounded=1;whiteSpace=wrap;html=1;" vertex="1" parent="1">
          <mxGeometry x="580" y="160" width="100" height="40" as="geometry" />
        </mxCell>
        <mxCell id="GQfrkAbbICruEcOHjy7Y-14" value="Categoria" style="rounded=1;whiteSpace=wrap;html=1;" vertex="1" parent="1">
          <mxGeometry x="590" y="430" width="100" height="40" as="geometry" />
        </mxCell>
        <mxCell id="GQfrkAbbICruEcOHjy7Y-58" style="edgeStyle=none;rounded=0;orthogonalLoop=1;jettySize=auto;html=1;exitX=1;exitY=0.5;exitDx=0;exitDy=0;entryX=0;entryY=0.5;entryDx=0;entryDy=0;endArrow=none;endFill=0;" edge="1" parent="1" source="GQfrkAbbICruEcOHjy7Y-15" target="GQfrkAbbICruEcOHjy7Y-57">
          <mxGeometry relative="1" as="geometry" />
        </mxCell>
        <mxCell id="GQfrkAbbICruEcOHjy7Y-15" value="Producto" style="rounded=1;whiteSpace=wrap;html=1;" vertex="1" parent="1">
          <mxGeometry x="190" y="430" width="100" height="40" as="geometry" />
        </mxCell>
        <mxCell id="GQfrkAbbICruEcOHjy7Y-16" value="&lt;u&gt;id&lt;/u&gt;" style="ellipse;whiteSpace=wrap;html=1;" vertex="1" parent="1">
          <mxGeometry x="630" y="90" width="60" height="30" as="geometry" />
        </mxCell>
        <mxCell id="GQfrkAbbICruEcOHjy7Y-17" value="rut" style="ellipse;whiteSpace=wrap;html=1;" vertex="1" parent="1">
          <mxGeometry x="710" y="150" width="60" height="30" as="geometry" />
        </mxCell>
        <mxCell id="GQfrkAbbICruEcOHjy7Y-18" value="direccion" style="ellipse;whiteSpace=wrap;html=1;" vertex="1" parent="1">
          <mxGeometry x="700" y="200" width="60" height="30" as="geometry" />
        </mxCell>
        <mxCell id="GQfrkAbbICruEcOHjy7Y-19" value="nombre" style="ellipse;whiteSpace=wrap;html=1;" vertex="1" parent="1">
          <mxGeometry x="690" y="110" width="60" height="30" as="geometry" />
        </mxCell>
        <mxCell id="GQfrkAbbICruEcOHjy7Y-32" style="edgeStyle=none;rounded=0;orthogonalLoop=1;jettySize=auto;html=1;exitX=0.5;exitY=1;exitDx=0;exitDy=0;entryX=0.58;entryY=-0.065;entryDx=0;entryDy=0;entryPerimeter=0;endArrow=none;endFill=0;" edge="1" parent="1" source="GQfrkAbbICruEcOHjy7Y-27" target="GQfrkAbbICruEcOHjy7Y-11">
          <mxGeometry relative="1" as="geometry" />
        </mxCell>
        <mxCell id="GQfrkAbbICruEcOHjy7Y-27" value="&lt;u&gt;numero&lt;/u&gt;" style="ellipse;whiteSpace=wrap;html=1;" vertex="1" parent="1">
          <mxGeometry x="240" y="90" width="60" height="30" as="geometry" />
        </mxCell>
        <mxCell id="GQfrkAbbICruEcOHjy7Y-33" style="edgeStyle=none;rounded=0;orthogonalLoop=1;jettySize=auto;html=1;exitX=0.5;exitY=1;exitDx=0;exitDy=0;entryX=0.25;entryY=0;entryDx=0;entryDy=0;endArrow=none;endFill=0;" edge="1" parent="1" source="GQfrkAbbICruEcOHjy7Y-28" target="GQfrkAbbICruEcOHjy7Y-11">
          <mxGeometry relative="1" as="geometry" />
        </mxCell>
        <mxCell id="GQfrkAbbICruEcOHjy7Y-28" value="fecha" style="ellipse;whiteSpace=wrap;html=1;" vertex="1" parent="1">
          <mxGeometry x="180" y="90" width="60" height="30" as="geometry" />
        </mxCell>
        <mxCell id="GQfrkAbbICruEcOHjy7Y-34" style="edgeStyle=none;rounded=0;orthogonalLoop=1;jettySize=auto;html=1;exitX=1;exitY=1;exitDx=0;exitDy=0;endArrow=none;endFill=0;" edge="1" parent="1" source="GQfrkAbbICruEcOHjy7Y-29">
          <mxGeometry relative="1" as="geometry">
            <mxPoint x="200" y="160" as="targetPoint" />
          </mxGeometry>
        </mxCell>
        <mxCell id="GQfrkAbbICruEcOHjy7Y-29" value="subtotal" style="ellipse;whiteSpace=wrap;html=1;" vertex="1" parent="1">
          <mxGeometry x="120" y="105" width="60" height="30" as="geometry" />
        </mxCell>
        <mxCell id="GQfrkAbbICruEcOHjy7Y-47" style="edgeStyle=none;rounded=0;orthogonalLoop=1;jettySize=auto;html=1;exitX=0.5;exitY=0;exitDx=0;exitDy=0;entryX=0.5;entryY=1;entryDx=0;entryDy=0;endArrow=none;endFill=0;" edge="1" parent="1" source="GQfrkAbbICruEcOHjy7Y-37" target="GQfrkAbbICruEcOHjy7Y-15">
          <mxGeometry relative="1" as="geometry" />
        </mxCell>
        <mxCell id="GQfrkAbbICruEcOHjy7Y-37" value="valor_unitario" style="ellipse;whiteSpace=wrap;html=1;" vertex="1" parent="1">
          <mxGeometry x="150" y="520" width="90" height="40" as="geometry" />
        </mxCell>
        <mxCell id="GQfrkAbbICruEcOHjy7Y-48" style="edgeStyle=none;rounded=0;orthogonalLoop=1;jettySize=auto;html=1;exitX=0.5;exitY=0;exitDx=0;exitDy=0;entryX=0.656;entryY=1.065;entryDx=0;entryDy=0;endArrow=none;endFill=0;entryPerimeter=0;" edge="1" parent="1" source="GQfrkAbbICruEcOHjy7Y-38" target="GQfrkAbbICruEcOHjy7Y-15">
          <mxGeometry relative="1" as="geometry" />
        </mxCell>
        <mxCell id="GQfrkAbbICruEcOHjy7Y-38" value="stock" style="ellipse;whiteSpace=wrap;html=1;" vertex="1" parent="1">
          <mxGeometry x="250" y="520" width="60" height="30" as="geometry" />
        </mxCell>
        <mxCell id="GQfrkAbbICruEcOHjy7Y-39" value="producto" style="ellipse;whiteSpace=wrap;html=1;fillColor=#dae8fc;strokeColor=#6c8ebf;" vertex="1" parent="1">
          <mxGeometry x="80" y="145" width="70" height="30" as="geometry" />
        </mxCell>
        <mxCell id="GQfrkAbbICruEcOHjy7Y-44" style="edgeStyle=none;rounded=0;orthogonalLoop=1;jettySize=auto;html=1;exitX=1;exitY=0.5;exitDx=0;exitDy=0;entryX=0;entryY=0.25;entryDx=0;entryDy=0;endArrow=none;endFill=0;" edge="1" parent="1" source="GQfrkAbbICruEcOHjy7Y-41" target="GQfrkAbbICruEcOHjy7Y-15">
          <mxGeometry relative="1" as="geometry" />
        </mxCell>
        <mxCell id="GQfrkAbbICruEcOHjy7Y-41" value="&lt;u&gt;id&lt;/u&gt;" style="ellipse;whiteSpace=wrap;html=1;" vertex="1" parent="1">
          <mxGeometry x="90" y="410" width="60" height="30" as="geometry" />
        </mxCell>
        <mxCell id="GQfrkAbbICruEcOHjy7Y-45" style="edgeStyle=none;rounded=0;orthogonalLoop=1;jettySize=auto;html=1;exitX=1;exitY=0.5;exitDx=0;exitDy=0;entryX=0;entryY=0.75;entryDx=0;entryDy=0;endArrow=none;endFill=0;" edge="1" parent="1" source="GQfrkAbbICruEcOHjy7Y-42" target="GQfrkAbbICruEcOHjy7Y-15">
          <mxGeometry relative="1" as="geometry" />
        </mxCell>
        <mxCell id="GQfrkAbbICruEcOHjy7Y-42" value="nombre" style="ellipse;whiteSpace=wrap;html=1;" vertex="1" parent="1">
          <mxGeometry x="90" y="450" width="60" height="30" as="geometry" />
        </mxCell>
        <mxCell id="GQfrkAbbICruEcOHjy7Y-46" style="edgeStyle=none;rounded=0;orthogonalLoop=1;jettySize=auto;html=1;exitX=1;exitY=0;exitDx=0;exitDy=0;entryX=0.32;entryY=1.065;entryDx=0;entryDy=0;entryPerimeter=0;endArrow=none;endFill=0;" edge="1" parent="1" source="GQfrkAbbICruEcOHjy7Y-43" target="GQfrkAbbICruEcOHjy7Y-15">
          <mxGeometry relative="1" as="geometry" />
        </mxCell>
        <mxCell id="GQfrkAbbICruEcOHjy7Y-43" value="descripcion" style="ellipse;whiteSpace=wrap;html=1;" vertex="1" parent="1">
          <mxGeometry x="90" y="490" width="70" height="30" as="geometry" />
        </mxCell>
        <mxCell id="GQfrkAbbICruEcOHjy7Y-54" style="edgeStyle=none;rounded=0;orthogonalLoop=1;jettySize=auto;html=1;exitX=0.5;exitY=1;exitDx=0;exitDy=0;entryX=0.75;entryY=0;entryDx=0;entryDy=0;endArrow=none;endFill=0;" edge="1" parent="1" source="GQfrkAbbICruEcOHjy7Y-51" target="GQfrkAbbICruEcOHjy7Y-14">
          <mxGeometry relative="1" as="geometry" />
        </mxCell>
        <mxCell id="GQfrkAbbICruEcOHjy7Y-51" value="&lt;u&gt;id&lt;/u&gt;" style="ellipse;whiteSpace=wrap;html=1;" vertex="1" parent="1">
          <mxGeometry x="660" y="370" width="60" height="30" as="geometry" />
        </mxCell>
        <mxCell id="GQfrkAbbICruEcOHjy7Y-55" style="edgeStyle=none;rounded=0;orthogonalLoop=1;jettySize=auto;html=1;exitX=0;exitY=1;exitDx=0;exitDy=0;entryX=1;entryY=0.5;entryDx=0;entryDy=0;endArrow=none;endFill=0;" edge="1" parent="1" source="GQfrkAbbICruEcOHjy7Y-52" target="GQfrkAbbICruEcOHjy7Y-14">
          <mxGeometry relative="1" as="geometry" />
        </mxCell>
        <mxCell id="GQfrkAbbICruEcOHjy7Y-52" value="nombre" style="ellipse;whiteSpace=wrap;html=1;" vertex="1" parent="1">
          <mxGeometry x="710" y="410" width="60" height="30" as="geometry" />
        </mxCell>
        <mxCell id="GQfrkAbbICruEcOHjy7Y-56" style="edgeStyle=none;rounded=0;orthogonalLoop=1;jettySize=auto;html=1;exitX=0;exitY=0.5;exitDx=0;exitDy=0;entryX=0.932;entryY=1.035;entryDx=0;entryDy=0;entryPerimeter=0;endArrow=none;endFill=0;" edge="1" parent="1" source="GQfrkAbbICruEcOHjy7Y-53" target="GQfrkAbbICruEcOHjy7Y-14">
          <mxGeometry relative="1" as="geometry" />
        </mxCell>
        <mxCell id="GQfrkAbbICruEcOHjy7Y-53" value="descripcion" style="ellipse;whiteSpace=wrap;html=1;" vertex="1" parent="1">
          <mxGeometry x="710" y="460" width="70" height="40" as="geometry" />
        </mxCell>
        <mxCell id="GQfrkAbbICruEcOHjy7Y-59" style="edgeStyle=none;rounded=0;orthogonalLoop=1;jettySize=auto;html=1;exitX=1;exitY=0.5;exitDx=0;exitDy=0;endArrow=none;endFill=0;" edge="1" parent="1" source="GQfrkAbbICruEcOHjy7Y-57" target="GQfrkAbbICruEcOHjy7Y-14">
          <mxGeometry relative="1" as="geometry" />
        </mxCell>
        <mxCell id="GQfrkAbbICruEcOHjy7Y-57" value="pertenece" style="rhombus;whiteSpace=wrap;html=1;" vertex="1" parent="1">
          <mxGeometry x="420" y="410" width="80" height="80" as="geometry" />
        </mxCell>
        <mxCell id="GQfrkAbbICruEcOHjy7Y-62" value="precio_unitario" style="ellipse;whiteSpace=wrap;html=1;fillColor=#dae8fc;strokeColor=#6c8ebf;" vertex="1" parent="1">
          <mxGeometry x="60" y="190" width="90" height="30" as="geometry" />
        </mxCell>
        <mxCell id="GQfrkAbbICruEcOHjy7Y-66" style="edgeStyle=none;rounded=0;orthogonalLoop=1;jettySize=auto;html=1;exitX=0.5;exitY=1;exitDx=0;exitDy=0;entryX=0.5;entryY=0;entryDx=0;entryDy=0;endArrow=none;endFill=0;" edge="1" parent="1" source="GQfrkAbbICruEcOHjy7Y-64" target="GQfrkAbbICruEcOHjy7Y-15">
          <mxGeometry relative="1" as="geometry" />
        </mxCell>
        <mxCell id="GQfrkAbbICruEcOHjy7Y-64" value="tiene" style="rhombus;whiteSpace=wrap;html=1;" vertex="1" parent="1">
          <mxGeometry x="200" y="270" width="80" height="80" as="geometry" />
        </mxCell>
        <mxCell id="GQfrkAbbICruEcOHjy7Y-67" value="(1,N)" style="text;html=1;align=center;verticalAlign=middle;resizable=0;points=[];autosize=1;strokeColor=none;fillColor=none;" vertex="1" parent="1">
          <mxGeometry x="540" y="420" width="40" height="20" as="geometry" />
        </mxCell>
        <mxCell id="GQfrkAbbICruEcOHjy7Y-68" value="(1,1)" style="text;html=1;align=center;verticalAlign=middle;resizable=0;points=[];autosize=1;strokeColor=none;fillColor=none;" vertex="1" parent="1">
          <mxGeometry x="300" y="420" width="40" height="20" as="geometry" />
        </mxCell>
        <mxCell id="GQfrkAbbICruEcOHjy7Y-69" value="(N,1)" style="text;html=1;align=center;verticalAlign=middle;resizable=0;points=[];autosize=1;strokeColor=none;fillColor=none;" vertex="1" parent="1">
          <mxGeometry x="440" y="380" width="40" height="20" as="geometry" />
        </mxCell>
        <mxCell id="GQfrkAbbICruEcOHjy7Y-70" value="(1,1)" style="text;html=1;align=center;verticalAlign=middle;resizable=0;points=[];autosize=1;strokeColor=none;fillColor=none;" vertex="1" parent="1">
          <mxGeometry x="300" y="155" width="40" height="20" as="geometry" />
        </mxCell>
        <mxCell id="GQfrkAbbICruEcOHjy7Y-71" value="(1,N)" style="text;html=1;align=center;verticalAlign=middle;resizable=0;points=[];autosize=1;strokeColor=none;fillColor=none;" vertex="1" parent="1">
          <mxGeometry x="530" y="155" width="40" height="20" as="geometry" />
        </mxCell>
        <mxCell id="GQfrkAbbICruEcOHjy7Y-72" value="(N,1)" style="text;html=1;align=center;verticalAlign=middle;resizable=0;points=[];autosize=1;strokeColor=none;fillColor=none;" vertex="1" parent="1">
          <mxGeometry x="420" y="115" width="40" height="20" as="geometry" />
        </mxCell>
        <mxCell id="GQfrkAbbICruEcOHjy7Y-73" value="(1,N)" style="text;html=1;align=center;verticalAlign=middle;resizable=0;points=[];autosize=1;strokeColor=none;fillColor=none;" vertex="1" parent="1">
          <mxGeometry x="240" y="210" width="40" height="20" as="geometry" />
        </mxCell>
        <mxCell id="GQfrkAbbICruEcOHjy7Y-74" value="(1,N)" style="text;html=1;align=center;verticalAlign=middle;resizable=0;points=[];autosize=1;strokeColor=none;fillColor=none;" vertex="1" parent="1">
          <mxGeometry x="240" y="400" width="40" height="20" as="geometry" />
        </mxCell>
        <mxCell id="GQfrkAbbICruEcOHjy7Y-76" value="(N,N)" style="text;html=1;align=center;verticalAlign=middle;resizable=0;points=[];autosize=1;strokeColor=none;fillColor=none;" vertex="1" parent="1">
          <mxGeometry x="290" y="300" width="40" height="20" as="geometry" />
        </mxCell>
        <mxCell id="GQfrkAbbICruEcOHjy7Y-77" value="cantidad" style="ellipse;whiteSpace=wrap;html=1;fillColor=#dae8fc;strokeColor=#6c8ebf;" vertex="1" parent="1">
          <mxGeometry x="100" y="230" width="60" height="30" as="geometry" />
        </mxCell>
      </root>
    </mxGraphModel>
  </diagram>
</mxfile>
